<svg xmlns="http://www.w3.org/2000/svg" viewBox="0 0 400 400"><defs><style>.cls-1{fill:#228bca;}.cls-2{fill:#fdfefe;}</style></defs><g id="Layer_2" data-name="Layer 2"><g id="Layer_1-2" data-name="Layer 1"><path class="cls-1" d="M183,0h34c5.27,1,10.53,2.11,15.82,3,81.29,12.87,148.09,77.84,163.26,158.83,1.32,7.07,2.61,14.15,3.92,21.22v35a7.16,7.16,0,0,0-1.08,2c-2,10.6-3,21.51-6.13,31.78q-36.54,120.7-160.46,145.37c-5.1,1-10.22,1.93-15.33,2.89H182a10.78,10.78,0,0,0-2.46-1.11c-7.86-1.38-15.79-2.36-23.58-4-76.23-16.45-137.83-80-152-156.66C2.66,231.45,1.31,224.73,0,218V182a10.4,10.4,0,0,0,1.12-2.46c1.36-7.69,2.31-15.46,4-23.08C22,79.16,84.47,18.57,162.28,3.86,169.18,2.55,176.09,1.28,183,0ZM122.67,188.31c-.19,1.77-.49,3.38-.5,5-.08,10.16-.07,20.32-.13,30.48-.05,8.37,1.73,10.54,9.87,12.06,14.22,2.65,28.42,5.44,42.66,8,7.19,1.27,14.7,3.77,21.65,2.77,21.05-3,41.91-7.43,62.83-11.37,4.71-.89,7-3.68,7-8.75-.12-24.48,0-49-.07-73.46,0-8.88-1.57-10.37-10.4-12-16-2.89-32.05-6-48.09-8.91-5.21-.93-10.7-2.66-15.71-1.85-21,3.43-41.89,7.67-62.81,11.66-4.29.82-6.74,3.5-6.86,7.94-.12,4.16,0,8.32,0,12.49,0,2.81,1,4.45,4.07,4.3,2.8-.13,4.86-1,4.73-4.34-.09-2.63,0-5.26,0-9l58.73,10.6v73.65l-59-10.79V188.31Zm-7.21,35.74c-4.56,1.39-8.64,2.16-12.28,3.85-6.93,3.23-12.34,8.11-12.65,16.44-.31,8.06,4.93,12.62,11.21,16.31a32.44,32.44,0,0,0,3.14,1.52c9.42,4.32,19.49,5.47,29.67,5.76,30.8.9,61.86-2.6,92.24,5.69,10.89,3,22.08,4.88,33,7.84,9.65,2.62,18.76,6.08,29.25,2.66,12.48-4.08,15.38-12.58,6.38-22.19-2.9-3.1-5.87-6.13-9.16-9.55,5.55-3.34,10.69-6.08,15.43-9.4,6-4.18,5.78-10.95-.42-14.65-8-4.73-16.77-5.67-26-5.13-.1,1.48-.1,2.47-.24,3.43-.71,4.61.84,6.81,5.88,6.35a49.65,49.65,0,0,1,10.4.39c1.16.14,2.17,1.53,3.24,2.35-.85,1.09-1.51,2.44-2.59,3.21-3.77,2.69-8,4.83-11.47,7.83-3.76,3.24-3.73,7.08-.62,11,1.75,2.2,3.8,4.18,5.67,6.3,2.35,2.68,4.66,5.4,8,9.25-4.28,1.15-7.22,2.57-10.16,2.59a69,69,0,0,1-15.32-1.4c-6.3-1.4-12.34-3.93-18.59-5.63-24.56-6.67-49.7-9-75-9.54-14.66-.31-29.33.12-44-.3-8.65-.25-17.42-1.38-24.83-6.32-2.76-1.85-6.12-5.44-6-8.16s3.52-6.15,6.29-8.14,6.42-2.46,10.16-3.77ZM57.77,171.76c.47,4-2.2,8.7,4.13,9.23a122.29,122.29,0,0,0,14.93.67c8.59-.31,14.25,3.58,15.31,11.86a178.79,178.79,0,0,1,1.13,19.23c.07,3.18,1,4.4,4.36,4.33s4.26-1.14,4.43-4.37c.41-7.4.63-14.91,2.17-22.12,1.34-6.32,6.17-8.6,12.65-8.78,6.93-.19,13.84-1,20.82-1.59v-8.47c-5,0-9.82.33-14.57-.08-6.18-.55-13.09-.39-16.69-6.71a34.63,34.63,0,0,1-4.13-12.34c-.7-5.34-.17-10.84-.17-16.35H93.22v14.08c0,14.88-5.76,20.87-20.71,21.38C67.73,171.9,62.94,171.76,57.77,171.76ZM250.21,128.9c24.37,1.12,27.5,3.91,28.45,28.39h8.08c.56-8.32-.81-16.86,5.67-23s15.11-3.8,22.66-5.14c1.19-8.27.39-9.21-7.42-9.12-1,0-2,.16-3,.2-9.28.46-15.31-4.2-16.82-13.39-.76-4.67-1-9.44-1.42-14.09-8.25-1.08-8.25-1.08-8.31,6.49,0,1.66,0,3.34-.12,5-.94,9.77-5.71,14.77-15.35,16-4.08.52-8.18.83-12.44,1.25ZM163,274.68l-.3,1.37c-2.67,0-5.43-.45-8,.09-6.13,1.32-12.54,2.28-18.13,4.9-7,3.27-7,9.82-.61,14a45.23,45.23,0,0,0,5.83,2.78c6.88,3.29,14.34,3.28,21.55,2.64a160.18,160.18,0,0,0,24.35-4.37,7.8,7.8,0,0,0,6.29-8c-.08-4.46-3-6.92-6.49-7.88C179.46,278,171.2,276.48,163,274.68Zm159.14-33.46c-5.11,1.47-10.31,2.22-14.79,4.42-7,3.42-7.09,10.16-.23,13.71,10,5.18,20.42,6.59,30.62-.06,6.25-4.07,6.41-10.2-.31-13.54C332.84,243.46,327.45,242.72,322.16,241.22Z"/><path class="cls-2" d="M183,0c-6.91,1.28-13.82,2.55-20.72,3.86C84.47,18.57,22,79.16,5.1,156.46c-1.67,7.62-2.62,15.39-4,23.08A10.4,10.4,0,0,1,0,182V0Z"/><path class="cls-2" d="M400,183c-1.31-7.07-2.6-14.15-3.92-21.22-15.17-81-82-146-163.26-158.83C227.53,2.11,222.27,1,217,0H400Z"/><path class="cls-2" d="M0,218c1.31,6.73,2.66,13.45,3.91,20.19C18.13,314.86,79.73,378.4,156,394.85c7.79,1.68,15.72,2.66,23.58,4A10.78,10.78,0,0,1,182,400H0Z"/><path class="cls-2" d="M217,400c5.11-1,10.23-1.87,15.33-2.89q123.78-24.6,160.46-145.37c3.1-10.27,4.1-21.18,6.13-31.78a7.16,7.16,0,0,1,1.08-2V400Z"/><path class="cls-2" d="M122.67,188.31h7.93v38.45l59,10.79V163.9l-58.73-10.6c0,3.77-.07,6.4,0,9,.13,3.37-1.93,4.21-4.73,4.34-3.06.15-4.1-1.49-4.07-4.3,0-4.17-.09-8.33,0-12.49.12-4.44,2.57-7.12,6.86-7.94,20.92-4,41.8-8.23,62.81-11.66,5-.81,10.5.92,15.71,1.85,16,2.88,32,6,48.09,8.91,8.83,1.59,10.38,3.08,10.4,12,.06,24.49-.05,49,.07,73.46,0,5.07-2.29,7.86-7,8.75-20.92,3.94-41.78,8.36-62.83,11.37-6.95,1-14.46-1.5-21.65-2.77-14.24-2.53-28.44-5.32-42.66-8-8.14-1.52-9.92-3.69-9.87-12.06.06-10.16,0-20.32.13-30.48C122.18,191.69,122.48,190.08,122.67,188.31Zm134.81-35.54c-19,3.52-37.05,6.92-55.16,10.22-2.89.52-4.26,1.55-4.12,4.84.26,6.14,0,12.3,0,18.45,0,16.92,0,33.84,0,51.53l59.33-11.1Zm-21.12-6.26c-6.41-1.21-11.44-2.31-16.52-3.09-12.68-1.93-25.16-6.93-38.28-2.55a47.54,47.54,0,0,1-5.87,1.13q-11.46,2.31-22.93,4.66a6.61,6.61,0,0,0,3.72,2.31c11.44,2.13,22.87,4.33,34.36,6.15,3,.47,6.26-.05,9.33-.55,5.52-.91,11-2.12,16.5-3.26C222.86,150,229.47,150.31,236.36,146.51Z"/><path class="cls-2" d="M115.46,224.05l.54,8.6c-3.74,1.31-7.45,1.83-10.16,3.77s-6.22,5.32-6.29,8.14,3.29,6.31,6,8.16c7.41,4.94,16.18,6.07,24.83,6.32,14.65.42,29.32,0,44,.3,25.33.53,50.47,2.87,75,9.54,6.25,1.7,12.29,4.23,18.59,5.63a69,69,0,0,0,15.32,1.4c2.94,0,5.88-1.44,10.16-2.59-3.33-3.85-5.64-6.57-8-9.25-1.87-2.12-3.92-4.1-5.67-6.3-3.11-3.93-3.14-7.77.62-11,3.48-3,7.7-5.14,11.47-7.83,1.08-.77,1.74-2.12,2.59-3.21-1.07-.82-2.08-2.21-3.24-2.35a49.65,49.65,0,0,0-10.4-.39c-5,.46-6.59-1.74-5.88-6.35.14-1,.14-1.95.24-3.43,9.22-.54,18,.4,26,5.13,6.2,3.7,6.38,10.47.42,14.65-4.74,3.32-9.88,6.06-15.43,9.4,3.29,3.42,6.26,6.45,9.16,9.55,9,9.61,6.1,18.11-6.38,22.19-10.49,3.42-19.6,0-29.25-2.66-10.89-3-22.08-4.86-33-7.84-30.38-8.29-61.44-4.79-92.24-5.69-10.18-.29-20.25-1.44-29.67-5.76a32.44,32.44,0,0,1-3.14-1.52c-6.28-3.69-11.52-8.25-11.21-16.31.31-8.33,5.72-13.21,12.65-16.44C106.82,226.21,110.9,225.44,115.46,224.05Z"/><path class="cls-2" d="M57.77,171.76c5.17,0,10,.14,14.74,0,14.95-.51,20.71-6.5,20.71-21.38V136.27h8.92c0,5.51-.53,11,.17,16.35A34.63,34.63,0,0,0,106.44,165c3.6,6.32,10.51,6.16,16.69,6.71,4.75.41,9.56.08,14.57.08v8.47c-7,.56-13.89,1.4-20.82,1.59-6.48.18-11.31,2.46-12.65,8.78-1.54,7.21-1.76,14.72-2.17,22.12-.17,3.23-1.22,4.31-4.43,4.37s-4.29-1.15-4.36-4.33a178.79,178.79,0,0,0-1.13-19.23c-1.06-8.28-6.72-12.17-15.31-11.86A122.29,122.29,0,0,1,61.9,181C55.57,180.46,58.24,175.77,57.77,171.76Zm40-2.12-6.84,6.49L97.26,182l7.56-5.87Z"/><path class="cls-2" d="M250.21,128.9v-7.44c4.26-.42,8.36-.73,12.44-1.25,9.64-1.23,14.41-6.23,15.35-16,.16-1.65.11-3.33.12-5,.06-7.57.06-7.57,8.31-6.49.45,4.65.66,9.42,1.42,14.09,1.51,9.19,7.54,13.85,16.82,13.39,1,0,2-.18,3-.2,7.81-.09,8.61.85,7.42,9.12-7.55,1.34-16.3-.9-22.66,5.14s-5.11,14.7-5.67,23h-8.08C277.71,132.81,274.58,130,250.21,128.9Zm25.46-3.62,6.95,6.36,6.81-6.38C282.75,118.56,282.75,118.56,275.67,125.28Z"/><path class="cls-2" d="M163,274.68c8.18,1.8,16.44,3.33,24.51,5.53,3.54,1,6.41,3.42,6.49,7.88a7.8,7.8,0,0,1-6.29,8,160.18,160.18,0,0,1-24.35,4.37c-7.21.64-14.67.65-21.55-2.64a45.23,45.23,0,0,1-5.83-2.78c-6.35-4.2-6.39-10.75.61-14,5.59-2.62,12-3.58,18.13-4.9,2.55-.54,5.31-.09,8-.09Zm18.41,14.88c-3.71-6.62-32.46-7-39.32-.71C155.22,293,168.19,292.91,181.43,289.56Z"/><path class="cls-2" d="M322.16,241.22c5.29,1.5,10.68,2.24,15.29,4.53,6.72,3.34,6.56,9.47.31,13.54-10.2,6.65-20.59,5.24-30.62.06-6.86-3.55-6.74-10.29.23-13.71C311.85,243.44,317.05,242.69,322.16,241.22Zm6,11.91.05-1.32H316.63c0,.44,0,.88-.05,1.32Z"/><path class="cls-1" d="M257.48,152.77v73.94l-59.33,11.1c0-17.69,0-34.61,0-51.53,0-6.15.31-12.31,0-18.45-.14-3.29,1.23-4.32,4.12-4.84C220.43,159.69,238.53,156.29,257.48,152.77ZM243.3,177.39c-7.67,10.69-15,20.75-22.13,30.92-4.28,6.09-4.17,6.16,3,10.41l26.07-36.27Zm-23.88,22c3.41-4.81,6.25-9.27,9.55-13.35,2.52-3.13,2.25-5.14-1.31-6.87a24.73,24.73,0,0,1-2.84-1.94c-3.65,4.82-7.31,9.31-10.49,14.11-.67,1,0,3.41.79,4.73S217.63,198.08,219.42,199.4Z"/><path class="cls-1" d="M236.36,146.51c-6.89,3.8-13.5,3.52-19.69,4.8-5.49,1.14-11,2.35-16.5,3.26-3.07.5-6.32,1-9.33.55-11.49-1.82-22.92-4-34.36-6.15a6.61,6.61,0,0,1-3.72-2.31q11.46-2.34,22.93-4.66a47.54,47.54,0,0,0,5.87-1.13c13.12-4.38,25.6.62,38.28,2.55C224.92,144.2,230,145.3,236.36,146.51Z"/><path class="cls-1" d="M97.77,169.64l7,6.46L97.26,182l-6.33-5.84Z"/><path class="cls-1" d="M275.67,125.28c7.08-6.72,7.08-6.72,13.76,0l-6.81,6.38Z"/><path class="cls-1" d="M181.43,289.56c-13.24,3.35-26.21,3.39-39.32-.71C149,282.58,177.72,282.94,181.43,289.56Z"/><path class="cls-1" d="M328.17,253.13H316.58c0-.44,0-.88.05-1.32h11.59Z"/><path class="cls-2" d="M243.3,177.39l7,5.06L224.2,218.72c-7.2-4.25-7.31-4.32-3-10.41C228.32,198.14,235.63,188.08,243.3,177.39Z"/><path class="cls-2" d="M219.42,199.4c-1.79-1.32-3.52-2-4.3-3.32s-1.46-3.73-.79-4.73c3.18-4.8,6.84-9.29,10.49-14.11a24.73,24.73,0,0,0,2.84,1.94c3.56,1.73,3.83,3.74,1.31,6.87C225.67,190.13,222.83,194.59,219.42,199.4Z"/></g></g></svg>